<svg width="36" height="30" viewBox="0 0 36 30" fill="#F6F6F6" xmlns="http://www.w3.org/2000/svg">
<path d="M3.6 29.5C2.61 29.5 1.7625 29.1451 1.0575 28.4352C0.3525 27.7253 0 26.8719 0 25.875V4.125C0 3.12812 0.3525 2.27474 1.0575 1.56484C1.7625 0.854948 2.61 0.5 3.6 0.5H32.4C33.39 0.5 34.2375 0.854948 34.9425 1.56484C35.6475 2.27474 36 3.12812 36 4.125V25.875C36 26.8719 35.6475 27.7253 34.9425 28.4352C34.2375 29.1451 33.39 29.5 32.4 29.5H3.6ZM18 16.8125L3.6 7.75V25.875H32.4V7.75L18 16.8125ZM18 13.1875L32.4 4.125H3.6L18 13.1875ZM3.6 7.75V4.125V25.875V7.75Z"/>
</svg>
