<svg width="18" height="20" viewBox="0 0 18 20" fill="#F6F6F6" xmlns="http://www.w3.org/2000/svg">
<path d="M8.77509 10C9.37837 10 9.89482 9.80417 10.3244 9.4125C10.7541 9.02083 10.9689 8.55 10.9689 8C10.9689 7.45 10.7541 6.97917 10.3244 6.5875C9.89482 6.19583 9.37837 6 8.77509 6C8.1718 6 7.65535 6.19583 7.22574 6.5875C6.79612 6.97917 6.58132 7.45 6.58132 8C6.58132 8.55 6.79612 9.02083 7.22574 9.4125C7.65535 9.80417 8.1718 10 8.77509 10ZM8.77509 17.35C11.0054 15.4833 12.6599 13.7875 13.7385 12.2625C14.8171 10.7375 15.3564 9.38333 15.3564 8.2C15.3564 6.38333 14.7211 4.89583 13.4506 3.7375C12.18 2.57917 10.6215 2 8.77509 2C6.92866 2 5.37017 2.57917 4.09961 3.7375C2.82905 4.89583 2.19377 6.38333 2.19377 8.2C2.19377 9.38333 2.73307 10.7375 3.81168 12.2625C4.89028 13.7875 6.54475 15.4833 8.77509 17.35ZM8.77509 20C5.83178 17.7167 3.63343 15.5958 2.18006 13.6375C0.726687 11.6792 0 9.86667 0 8.2C0 5.7 0.882079 3.70833 2.64624 2.225C4.4104 0.741667 6.45334 0 8.77509 0C11.0968 0 13.1398 0.741667 14.9039 2.225C16.6681 3.70833 17.5502 5.7 17.5502 8.2C17.5502 9.86667 16.8235 11.6792 15.3701 13.6375C13.9167 15.5958 11.7184 17.7167 8.77509 20Z"/>
</svg>
